<svg width="24" height="24" viewBox="0 0 24 24" fill="none" xmlns="http://www.w3.org/2000/svg">
<g clip-path="url(#clip0_2704_18)">
<path d="M24 12.0935C24 11.2593 23.9339 10.4207 23.7928 9.6001H12.48V14.3253H18.9583C18.6895 15.8493 17.5848 17.3834 16.32 18.2401L16.5609 21.1201L20.16 21.1201C22.4296 18.9829 24 15.8268 24 12.0935Z" fill="#4285F4"/>
<path d="M12.1876 23.9999C15.4313 23.9999 18.1669 22.9483 20.1599 21.133L16.3199 18.2399C15.2416 18.9643 13.8139 19.3003 12.192 19.3003C9.05433 19.3003 6.2345 17.2101 5.27994 14.3999H1.43994V17.4588C3.48164 21.469 7.64017 23.9999 12.1876 23.9999Z" fill="#34A853"/>
<path d="M5.28001 14.4C4.72983 12.9396 4.96983 11.0604 5.52001 9.59998L5.76001 6.71998L1.44 6.47998C-0.42289 9.80267 -0.46571 13.9573 1.39718 17.28L5.28001 14.4Z" fill="#FBBC04"/>
<path d="M12.4191 4.69791C14.1707 4.67174 15.8636 5.30849 17.1322 6.47732L20.6399 3.08859C18.4188 1.07368 15.4709 -0.0340905 12.4191 0.000799855C7.77373 0.000799855 3.52562 2.46761 1.43994 6.48L5.52101 9.6C6.49162 6.78697 9.21384 4.69791 12.4191 4.69791Z" fill="#EA4335"/>
</g>
<defs>
<clipPath id="clip0_2704_18">
<rect width="24" height="24" fill="white"/>
</clipPath>
</defs>
</svg>
