<svg width="190" height="35" viewBox="0 0 190 35" fill="none" xmlns="http://www.w3.org/2000/svg">
<g clip-path="url(#clip0_142_200)">
<path d="M30.0727 21.2723L24.2209 14.417L18.3691 21.2723C13.8549 26.5622 17.4273 34.7286 24.2209 34.9886C31.0146 34.7286 34.5926 26.5565 30.0727 21.2723Z" fill="#1496D3"/>
<path d="M18.3635 21.2722L24.2154 14.4169L14.3676 2.88208C9.40749 -2.92771 0 0.632764 0 8.31321V26.7033C0 31.2867 3.66156 34.9998 8.18139 34.9998H23.8865C23.998 34.9998 24.1095 34.9941 24.2154 34.9885C17.4217 34.7285 13.8437 26.5564 18.3635 21.2722Z" fill="#00B3DC"/>
<path d="M34.0687 2.8822L24.2153 14.417L30.0671 21.2723C34.5814 26.5622 31.009 34.7286 24.2153 34.9886C24.3268 34.9886 24.4327 34.9999 24.5441 34.9999H40.2493C44.7691 34.9999 48.4307 31.2868 48.4307 26.7034V8.31333C48.4307 0.632886 39.0232 -2.92758 34.0631 2.8822H34.0687Z" fill="#0560A1"/>
<path d="M76.1182 28.6533H72.3396V19.1757L68.3826 28.6533H65.2171L61.2824 19.2266V28.6533H57.5261V10.5232H61.1264L66.8221 23.3183L72.49 10.5232H76.1182V28.6533Z" fill="#434343"/>
<path d="M87.0415 15.6378C87.6991 16.0447 88.0335 16.4177 88.0503 16.7625V15.1857H91.7007V28.6533H88.0503V26.8674C88.0335 27.2122 87.6936 27.6247 87.0304 28.1108C86.3672 28.5968 85.5646 28.8341 84.6283 28.8341C83.915 28.8341 83.196 28.6929 82.4827 28.4046C81.7693 28.1221 81.1061 27.7038 80.4931 27.1613C79.88 26.6187 79.384 25.8897 78.9994 24.9741C78.6149 24.0586 78.4254 23.03 78.4254 21.8941C78.4254 19.7691 79.0663 18.0962 80.3537 16.8698C81.6411 15.6434 83.0679 15.0331 84.6339 15.0331C85.5869 15.0331 86.3895 15.2365 87.0471 15.6434L87.0415 15.6378ZM83.0177 19.1983C82.3879 19.8708 82.0703 20.7694 82.0703 21.8941C82.0703 23.0187 82.3879 23.9682 83.0177 24.6407C83.6475 25.3132 84.3887 25.6523 85.2414 25.6523C86.0941 25.6523 86.7963 25.3471 87.3592 24.7311C87.9221 24.1208 88.2007 23.1713 88.2007 21.8941C88.2007 20.6168 87.9221 19.6786 87.3592 19.0852C86.7963 18.4918 86.0885 18.1923 85.2414 18.1923C84.3943 18.1923 83.6475 18.5314 83.0177 19.2039V19.1983Z" fill="#434343"/>
<path d="M103.421 15.7961C104.441 16.3048 105.277 17.0677 105.923 18.085L102.68 19.2775C102.167 18.5541 101.392 18.1924 100.356 18.1924C99.5199 18.1924 98.8009 18.5315 98.1879 19.2153C97.5748 19.8991 97.2683 20.8147 97.2683 21.9732C97.2683 23.1318 97.5748 23.9682 98.1879 24.6408C98.8009 25.3133 99.5254 25.6524 100.356 25.6524C101.409 25.6524 102.184 25.2964 102.68 24.5899L105.951 25.7824C105.288 26.7997 104.447 27.5626 103.421 28.0713C102.401 28.5799 101.376 28.8342 100.356 28.8342C99.6425 28.8342 98.9068 28.6929 98.1489 28.4047C97.3909 28.1221 96.6664 27.7096 95.9753 27.1727C95.2843 26.6358 94.7214 25.918 94.2755 25.0081C93.8352 24.1039 93.6123 23.0866 93.6123 21.9676C93.6123 20.8486 93.8352 19.7974 94.2755 18.8706C94.7158 17.9493 95.2843 17.2203 95.9753 16.6834C96.6664 16.1465 97.3909 15.7396 98.1489 15.4514C98.9068 15.1688 99.6425 15.0219 100.356 15.0219C101.376 15.0219 102.401 15.2762 103.421 15.7848V15.7961Z" fill="#434343"/>
<path d="M116.78 15.163V18.6048C116.49 18.554 116.067 18.5257 115.504 18.5257C114.361 18.5257 113.397 18.9213 112.606 19.7182C111.814 20.5151 111.357 21.5493 111.24 22.8265V28.6533H107.612V15.1857H111.24V19.5091C111.396 18.164 111.82 17.0846 112.516 16.2707C113.213 15.4569 114.222 15.0557 115.532 15.0557C116.094 15.0557 116.512 15.0896 116.78 15.1574V15.163Z" fill="#434343"/>
<path d="M126.433 15.4739C127.202 15.7678 127.926 16.186 128.617 16.7285C129.308 17.2711 129.871 18.0001 130.317 18.9157C130.757 19.8312 130.98 20.8485 130.98 21.9732C130.98 23.0978 130.757 24.1095 130.317 25.0137C129.877 25.9179 129.308 26.6413 128.617 27.1782C127.926 27.7151 127.202 28.1221 126.433 28.4103C125.664 28.6929 124.928 28.8398 124.209 28.8398C123.49 28.8398 122.754 28.6985 121.985 28.4103C121.216 28.1277 120.486 27.7151 119.789 27.1782C119.093 26.6413 118.519 25.9236 118.078 25.0137C117.638 24.1095 117.415 23.0922 117.415 21.9732C117.415 20.8542 117.638 19.8312 118.078 18.9157C118.519 18.0001 119.087 17.2711 119.778 16.7285C120.469 16.186 121.199 15.7678 121.974 15.4739C122.749 15.18 123.496 15.0331 124.209 15.0331C124.922 15.0331 125.664 15.18 126.433 15.4739ZM122.013 19.2039C121.383 19.8765 121.066 20.8033 121.066 21.9732C121.066 23.143 121.383 24.0134 122.013 24.669C122.643 25.3245 123.373 25.6523 124.209 25.6523C125.045 25.6523 125.747 25.3245 126.377 24.669C127.007 24.0134 127.324 23.1148 127.324 21.9732C127.324 20.8316 127.012 19.8765 126.377 19.2039C125.742 18.5314 125.023 18.1923 124.209 18.1923C123.395 18.1923 122.643 18.5314 122.013 19.2039Z" fill="#434343"/>
<path d="M147.17 12.5973L146.123 13.8406C144.863 12.5973 143.314 11.9756 141.475 11.9756C139.635 11.9756 137.963 12.7047 136.509 14.1628C135.054 15.6209 134.324 17.4294 134.324 19.5882C134.324 21.7471 135.049 23.5556 136.509 25.0137C137.963 26.4718 139.619 27.2009 141.475 27.2009C143.33 27.2009 144.863 26.5792 146.123 25.3359L147.193 26.5509C145.56 28.0712 143.654 28.8285 141.475 28.8285C139.975 28.8285 138.549 28.4442 137.183 27.6756C135.823 26.907 134.703 25.8049 133.823 24.3751C132.948 22.9396 132.507 21.3459 132.507 19.5826C132.507 17.8193 132.948 16.2256 133.823 14.7901C134.698 13.3546 135.818 12.2582 137.183 11.4896C138.543 10.721 139.975 10.3367 141.475 10.3367C143.654 10.3367 145.554 11.0883 147.17 12.5916V12.5973Z" fill="#434343"/>
<path d="M156.684 15.4739C157.425 15.7678 158.116 16.186 158.751 16.7285C159.387 17.2711 159.911 18.0001 160.306 18.9044C160.708 19.8086 160.908 20.8146 160.908 21.9223C160.908 23.03 160.708 24.036 160.306 24.9515C159.905 25.8671 159.387 26.5961 158.751 27.1387C158.11 27.6812 157.425 28.0994 156.684 28.3933C155.942 28.6872 155.207 28.8341 154.477 28.8341C153.747 28.8341 153.005 28.6872 152.253 28.3933C151.506 28.0994 150.81 27.6812 150.174 27.1387C149.533 26.5961 149.015 25.8671 148.614 24.9515C148.212 24.036 148.012 23.0244 148.012 21.9223C148.012 20.8203 148.212 19.8086 148.614 18.9044C149.015 18.0001 149.533 17.2711 150.174 16.7285C150.81 16.186 151.506 15.7678 152.253 15.4739C153 15.18 153.741 15.0331 154.477 15.0331C155.212 15.0331 155.942 15.18 156.684 15.4739ZM151.155 17.9323C150.169 18.8818 149.673 20.2099 149.673 21.9223C149.673 23.6347 150.169 24.9628 151.155 25.9123C152.142 26.8618 153.251 27.3365 154.477 27.3365C155.703 27.3365 156.784 26.8618 157.77 25.9123C158.757 24.9628 159.253 23.6347 159.253 21.9223C159.253 20.2099 158.757 18.8818 157.77 17.9323C156.784 16.9829 155.686 16.5081 154.477 16.5081C153.267 16.5081 152.142 16.9829 151.155 17.9323Z" fill="#434343"/>
<path d="M175.393 10.5232V28.6533H173.732V25.8332C173.308 26.7488 172.656 27.4778 171.781 28.0204C170.906 28.5629 169.948 28.8342 168.906 28.8342C167.306 28.8342 165.852 28.2238 164.536 26.9974C163.227 25.7711 162.569 24.0869 162.569 21.945C162.569 20.8373 162.764 19.8369 163.154 18.927C163.544 18.0228 164.051 17.2937 164.676 16.7399C165.294 16.186 165.974 15.7622 166.704 15.4683C167.434 15.1744 168.17 15.0275 168.9 15.0275C169.937 15.0275 170.895 15.2874 171.776 15.8074C172.651 16.3273 173.297 17.0394 173.704 17.955V10.5232H175.387H175.393ZM172.355 25.9463C173.325 25.025 173.81 23.6913 173.81 21.945C173.81 20.1986 173.325 18.8366 172.355 17.9041C171.386 16.9716 170.288 16.5082 169.062 16.5082C167.836 16.5082 166.727 16.9886 165.729 17.9437C164.731 18.8988 164.235 20.2382 164.235 21.945C164.235 23.6517 164.731 24.9572 165.729 25.9067C166.727 26.8561 167.836 27.3309 169.062 27.3309C170.288 27.3309 171.386 26.8675 172.355 25.9463Z" fill="#434343"/>
<path d="M188.01 16.8698C189.337 18.0962 190 19.7803 190 21.9223C190 22.0918 189.983 22.3179 189.95 22.5948H178.893C178.993 24.0981 179.528 25.2623 180.487 26.0931C181.451 26.9239 182.499 27.3365 183.641 27.3365C185.19 27.3365 186.45 26.7826 187.42 25.6805L188.746 26.5113C187.47 28.0655 185.764 28.8398 183.641 28.8398C182.911 28.8398 182.17 28.6928 181.417 28.3989C180.665 28.1051 179.974 27.6868 179.339 27.1443C178.703 26.6018 178.179 25.8727 177.784 24.9572C177.382 24.0416 177.182 23.03 177.182 21.9279C177.182 20.8259 177.382 19.8142 177.784 18.91C178.185 18.0058 178.698 17.2767 179.327 16.7342C179.957 16.1916 180.643 15.7734 181.384 15.4795C182.125 15.1856 182.861 15.0387 183.591 15.0387C185.207 15.0387 186.678 15.6491 188.01 16.8754V16.8698ZM180.503 17.7514C179.567 18.5653 179.032 19.7295 178.893 21.2497H188.339C188.205 19.7295 187.665 18.5653 186.717 17.7514C185.77 16.9376 184.728 16.5364 183.591 16.5364C182.454 16.5364 181.44 16.9433 180.503 17.7514Z" fill="#434343"/>
</g>
<defs>
<clipPath id="clip0_142_200">
<rect width="190" height="35" fill="white"/>
</clipPath>
</defs>
</svg>
