<svg width="153" height="76" viewBox="0 0 153 76" fill="none" xmlns="http://www.w3.org/2000/svg">
<g clip-path="url(#clip0_152_476)">
<path d="M83.2584 24.3874L76.4999 16.5282L69.7414 24.3874C64.5277 30.4518 68.6536 39.8142 76.4999 40.1122C84.3462 39.8142 88.4786 30.4454 83.2584 24.3874Z" fill="#1496D3"/>
<path d="M69.7414 24.3874L76.5 16.5282L65.1199 3.30436C59.3912 -3.35617 48.5261 0.725669 48.5261 9.53078V30.6138C48.5261 35.8684 52.755 40.1252 57.9752 40.1252H76.1138C76.2425 40.1252 76.3712 40.1187 76.4935 40.1122C68.6472 39.8142 64.5148 30.4454 69.735 24.3874H69.7414Z" fill="#00B3DC"/>
<path d="M87.8801 3.30436L76.5 16.5282L83.2585 24.3874C88.4722 30.4518 84.3463 39.8142 76.5 40.1122C76.6287 40.1122 76.751 40.1252 76.8798 40.1252H95.0183C100.238 40.1252 104.467 35.8684 104.467 30.6138V9.53078C104.467 0.725669 93.6023 -3.35617 87.8736 3.30436H87.8801Z" fill="#0560A1"/>
<path d="M21.4728 75.7927H17.1087V64.9272L12.5387 75.7927H8.88263L4.33833 64.9855V75.7927H0V55.0077H4.1581L10.7364 69.6764L17.2825 55.0077H21.4728V75.7927Z" fill="#434343"/>
<path d="M34.0822 60.8778C34.8417 61.3443 35.2279 61.7719 35.2473 62.1671V60.3594H39.4633V75.7992H35.2473V73.7518C35.2279 74.147 34.8353 74.62 34.0693 75.1772C33.3034 75.7344 32.3765 76.0065 31.2951 76.0065C30.4712 76.0065 29.6409 75.8445 28.817 75.5141C27.9931 75.1901 27.2271 74.7107 26.5191 74.0887C25.8111 73.4667 25.2382 72.6309 24.7941 71.5813C24.35 70.5316 24.1311 69.3524 24.1311 68.0501C24.1311 65.614 24.8713 63.6962 26.3582 62.2902C27.8451 60.8842 29.4929 60.1845 31.3016 60.1845C32.4022 60.1845 33.3291 60.4177 34.0887 60.8842L34.0822 60.8778ZM29.4349 64.9596C28.7076 65.7306 28.3407 66.7608 28.3407 68.0501C28.3407 69.3395 28.7076 70.428 29.4349 71.199C30.1623 71.97 31.0184 72.3587 32.0032 72.3587C32.988 72.3587 33.799 72.0089 34.4491 71.3027C35.0992 70.6029 35.421 69.5144 35.421 68.0501C35.421 66.5859 35.0992 65.5103 34.4491 64.83C33.799 64.1497 32.9815 63.8063 32.0032 63.8063C31.0248 63.8063 30.1623 64.1951 29.4349 64.9661V64.9596Z" fill="#434343"/>
<path d="M53.0061 61.0527C54.184 61.6358 55.1495 62.5105 55.8961 63.6767L52.15 65.0438C51.5578 64.2145 50.6631 63.7998 49.4659 63.7998C48.5004 63.7998 47.67 64.1886 46.962 64.9726C46.254 65.7565 45.9 66.8061 45.9 68.1344C45.9 69.4626 46.254 70.4215 46.962 71.1925C47.67 71.9635 48.5068 72.3523 49.4659 72.3523C50.6824 72.3523 51.5771 71.9441 52.15 71.1342L55.9283 72.5013C55.1623 73.6675 54.1904 74.5422 53.0061 75.1253C51.8281 75.7084 50.6438 76 49.4659 76C48.642 76 47.7923 75.838 46.917 75.5076C46.0416 75.1836 45.2048 74.7107 44.4066 74.0951C43.6085 73.4796 42.9584 72.6568 42.4435 71.6136C41.935 70.577 41.6775 69.4107 41.6775 68.1279C41.6775 66.845 41.935 65.6399 42.4435 64.5773C42.952 63.5212 43.6085 62.6854 44.4066 62.0699C45.2048 61.4544 46.0416 60.9879 46.917 60.6575C47.7923 60.3335 48.642 60.1651 49.4659 60.1651C50.6438 60.1651 51.8281 60.4566 53.0061 61.0397V61.0527Z" fill="#434343"/>
<path d="M68.4348 60.327V64.2728C68.1001 64.2145 67.6109 64.1821 66.9608 64.1821C65.6413 64.1821 64.5277 64.6356 63.6137 65.5492C62.6997 66.4628 62.1719 67.6484 62.0367 69.1127V75.7927H57.8464V60.353H62.0367V65.3095C62.2169 63.7674 62.7061 62.5299 63.5107 61.5969C64.3153 60.664 65.4803 60.2039 66.993 60.2039C67.6431 60.2039 68.1258 60.2428 68.4348 60.3206V60.327Z" fill="#434343"/>
<path d="M79.5833 60.6834C80.4715 61.0203 81.3083 61.4997 82.1064 62.1217C82.9046 62.7437 83.5547 63.5795 84.0696 64.6292C84.5781 65.6788 84.8356 66.845 84.8356 68.1344C84.8356 69.4237 84.5781 70.5835 84.0696 71.6201C83.5611 72.6568 82.9046 73.4861 82.1064 74.1016C81.3083 74.7171 80.4715 75.1836 79.5833 75.5141C78.695 75.838 77.8454 76.0065 77.015 76.0065C76.1847 76.0065 75.335 75.8445 74.4468 75.5141C73.5585 75.1901 72.7153 74.7171 71.9107 74.1016C71.1061 73.4861 70.4432 72.6633 69.9347 71.6201C69.4262 70.5835 69.1687 69.4172 69.1687 68.1344C69.1687 66.8515 69.4262 65.6788 69.9347 64.6292C70.4432 63.5795 71.0997 62.7437 71.8979 62.1217C72.696 61.4997 73.5392 61.0203 74.4339 60.6834C75.3286 60.3465 76.1911 60.178 77.015 60.178C77.8389 60.178 78.695 60.3465 79.5833 60.6834ZM74.479 64.9596C73.7516 65.7306 73.3847 66.7932 73.3847 68.1344C73.3847 69.4755 73.7516 70.4733 74.479 71.2249C75.2063 71.9765 76.0495 72.3523 77.015 72.3523C77.9805 72.3523 78.7915 71.9765 79.5189 71.2249C80.2462 70.4733 80.6131 69.4431 80.6131 68.1344C80.6131 66.8256 80.2527 65.7306 79.5189 64.9596C78.7851 64.1886 77.9548 63.7998 77.015 63.7998C76.0753 63.7998 75.2063 64.1886 74.479 64.9596Z" fill="#434343"/>
<path d="M103.534 57.3855L102.324 58.8109C100.869 57.3855 99.0799 56.6728 96.9558 56.6728C94.8316 56.6728 92.9006 57.5086 91.2207 59.1802C89.5407 60.8518 88.6975 62.9252 88.6975 65.4002C88.6975 67.8752 89.5343 69.9485 91.2207 71.6201C92.9006 73.2917 94.8123 74.1275 96.9558 74.1275C99.0992 74.1275 100.869 73.4148 102.324 71.9894L103.56 73.3824C101.674 75.1253 99.4725 75.9935 96.9558 75.9935C95.2243 75.9935 93.5765 75.5529 91.9995 74.6718C90.4289 73.7906 89.1352 72.5272 88.1182 70.888C87.1076 69.2423 86.5991 67.4152 86.5991 65.3937C86.5991 63.3722 87.1076 61.5451 88.1182 59.8994C89.1287 58.2537 90.4225 56.9968 91.9995 56.1156C93.5701 55.2344 95.2243 54.7939 96.9558 54.7939C99.4725 54.7939 101.667 55.6556 103.534 57.379V57.3855Z" fill="#434343"/>
<path d="M114.522 60.6834C115.378 61.0203 116.176 61.4997 116.91 62.1217C117.643 62.7437 118.248 63.5795 118.705 64.6162C119.169 65.6529 119.401 66.8061 119.401 68.076C119.401 69.346 119.169 70.4992 118.705 71.5489C118.242 72.5985 117.643 73.4343 116.91 74.0563C116.169 74.6783 115.378 75.1577 114.522 75.4946C113.666 75.8315 112.816 76 111.973 76C111.129 76 110.273 75.8315 109.404 75.4946C108.542 75.1577 107.737 74.6783 107.004 74.0563C106.263 73.4343 105.665 72.5985 105.201 71.5489C104.738 70.4992 104.506 69.3395 104.506 68.076C104.506 66.8126 104.738 65.6529 105.201 64.6162C105.665 63.5795 106.263 62.7437 107.004 62.1217C107.737 61.4997 108.542 61.0203 109.404 60.6834C110.267 60.3465 111.123 60.178 111.973 60.178C112.822 60.178 113.666 60.3465 114.522 60.6834ZM108.136 63.5018C106.997 64.5903 106.424 66.1129 106.424 68.076C106.424 70.0392 106.997 71.5618 108.136 72.6503C109.276 73.7388 110.557 74.283 111.973 74.283C113.389 74.283 114.637 73.7388 115.777 72.6503C116.916 71.5618 117.489 70.0392 117.489 68.076C117.489 66.1129 116.916 64.5903 115.777 63.5018C114.637 62.4133 113.369 61.8691 111.973 61.8691C110.576 61.8691 109.276 62.4133 108.136 63.5018Z" fill="#434343"/>
<path d="M136.129 55.0142V75.7992H134.211V72.5661C133.722 73.6157 132.969 74.4515 131.958 75.0735C130.948 75.6955 129.841 76.0065 128.637 76.0065C126.79 76.0065 125.11 75.3067 123.591 73.9008C122.078 72.4948 121.319 70.564 121.319 68.1084C121.319 66.8385 121.544 65.6917 121.994 64.6486C122.445 63.6119 123.031 62.7761 123.752 62.1412C124.466 61.5062 125.251 61.0203 126.095 60.6834C126.938 60.3465 127.787 60.178 128.631 60.178C129.828 60.178 130.935 60.4761 131.952 61.0721C132.963 61.6682 133.709 62.4846 134.179 63.5342V55.0142H136.123H136.129ZM132.621 72.6957C133.741 71.6396 134.301 70.1105 134.301 68.1084C134.301 66.1064 133.741 64.5449 132.621 63.4759C131.501 62.4068 130.233 61.8755 128.817 61.8755C127.401 61.8755 126.12 62.4263 124.968 63.5212C123.816 64.6162 123.243 66.1518 123.243 68.1084C123.243 70.0651 123.816 71.5618 124.968 72.6503C126.12 73.7388 127.401 74.283 128.817 74.283C130.233 74.283 131.501 73.7518 132.621 72.6957Z" fill="#434343"/>
<path d="M150.702 62.2837C152.234 63.6897 153 65.6205 153 68.0761C153 68.2704 152.981 68.5296 152.942 68.8471H140.172C140.287 70.5705 140.905 71.9052 142.013 72.8576C143.126 73.8101 144.336 74.283 145.656 74.283C147.445 74.283 148.9 73.6481 150.02 72.3847L151.552 73.3371C150.078 75.1189 148.108 76.0065 145.656 76.0065C144.812 76.0065 143.956 75.838 143.087 75.5011C142.218 75.1642 141.42 74.6847 140.687 74.0628C139.953 73.4408 139.348 72.605 138.891 71.5553C138.427 70.5057 138.196 69.346 138.196 68.0825C138.196 66.8191 138.427 65.6593 138.891 64.6227C139.354 63.586 139.946 62.7502 140.674 62.1282C141.401 61.5062 142.193 61.0268 143.049 60.6899C143.905 60.353 144.755 60.1845 145.598 60.1845C147.464 60.1845 149.164 60.8842 150.702 62.2902V62.2837ZM142.032 63.2945C140.95 64.2275 140.333 65.5622 140.172 67.305H151.082C150.927 65.5622 150.303 64.2275 149.209 63.2945C148.114 62.3615 146.911 61.9015 145.598 61.9015C144.285 61.9015 143.113 62.368 142.032 63.2945Z" fill="#434343"/>
</g>
<defs>
<clipPath id="clip0_152_476">
<rect width="153" height="76" fill="white"/>
</clipPath>
</defs>
</svg>
